<?xml version="1.0" standalone="no"?>
<!DOCTYPE svg PUBLIC "-//W3C//DTD SVG 20010904//EN"
 "http://www.w3.org/TR/2001/REC-SVG-20010904/DTD/svg10.dtd">
<svg version="1.0" xmlns="http://www.w3.org/2000/svg"
 width="512.000000pt" height="512.000000pt" viewBox="0 0 512.000000 512.000000"
 preserveAspectRatio="xMidYMid meet">
<metadata>
Created by potrace 1.14, written by Peter Selinger 2001-2017
</metadata>
<g transform="translate(0.000000,512.000000) scale(0.100000,-0.100000)"
fill="#000000" stroke="none">
<path d="M2378 5105 c-2 -1 -37 -6 -78 -9 -41 -4 -84 -9 -95 -11 -11 -3 -38
-7 -60 -10 -22 -3 -47 -7 -55 -10 -8 -2 -31 -6 -50 -9 -19 -3 -71 -15 -115
-26 -320 -84 -673 -256 -924 -452 -106 -84 -112 -89 -246 -223 -286 -285 -476
-588 -614 -982 -12 -34 -24 -70 -26 -80 -2 -10 -13 -49 -24 -88 -20 -72 -48
-209 -57 -280 -3 -22 -7 -49 -9 -61 -22 -102 -22 -543 0 -607 2 -6 7 -37 10
-67 16 -163 101 -472 174 -632 35 -77 108 -228 121 -248 5 -8 33 -53 61 -100
130 -213 354 -469 559 -637 227 -186 532 -353 812 -444 288 -94 518 -128 838
-124 118 2 226 5 240 8 14 3 48 8 75 11 28 3 61 8 75 11 14 3 41 8 60 11 60
10 259 63 339 91 547 188 1029 569 1335 1057 217 346 353 754 383 1151 12 157
5 498 -12 547 -2 7 -6 31 -9 53 -3 22 -10 65 -16 95 -6 30 -13 66 -16 80 -12
71 -82 292 -126 399 -87 208 -225 451 -335 586 -5 6 -26 32 -48 60 -145 181
-359 376 -565 515 -49 33 -92 60 -96 60 -4 0 -15 6 -23 14 -22 20 -213 117
-307 156 -326 136 -638 197 -1006 197 -92 0 -169 -1 -170 -2z"/>
</g>
</svg>
